<svg width="16" height="9" viewBox="0 0 16 9" fill="none" xmlns="http://www.w3.org/2000/svg">
<path d="M8.00305 7.40701L1.27504 0.679008C1.19548 0.599443 1.08757 0.554749 0.975045 0.554749C0.862523 0.554749 0.75461 0.599443 0.675045 0.679008C0.59548 0.758574 0.550781 0.86649 0.550781 0.979012C0.550781 1.09153 0.59548 1.19944 0.675045 1.27901L7.70204 8.30601C7.74115 8.34592 7.78783 8.37763 7.83934 8.39928C7.89085 8.42092 7.94617 8.43207 8.00205 8.43207C8.05792 8.43207 8.11324 8.42092 8.16475 8.39928C8.21626 8.37763 8.26294 8.34592 8.30205 8.30601L15.326 1.27901C15.3656 1.23968 15.397 1.19294 15.4184 1.14146C15.4399 1.08998 15.451 1.03478 15.451 0.979011C15.4517 0.923135 15.4409 0.867712 15.4195 0.816131C15.398 0.76455 15.3662 0.717889 15.326 0.679008C15.2869 0.639096 15.2403 0.607392 15.1887 0.585746C15.1372 0.5641 15.0819 0.552947 15.026 0.552947C14.9702 0.552947 14.9149 0.5641 14.8633 0.585746C14.8118 0.607392 14.7651 0.639096 14.726 0.679008L8.00305 7.40701Z" fill="black" stroke="#1E1744"/>
</svg>
