<svg width="12" height="17" viewBox="0 0 12 17" fill="none" xmlns="http://www.w3.org/2000/svg">
<path d="M6.005 0C4.41295 0.00185262 2.88663 0.635115 1.76087 1.76087C0.635117 2.88662 0.00185262 4.41294 0 6.005C0 10.114 5.374 16.147 5.6 16.405C5.6507 16.4607 5.71247 16.5052 5.78135 16.5356C5.85023 16.566 5.9247 16.5817 6 16.5817C6.0753 16.5817 6.14978 16.566 6.21866 16.5356C6.28754 16.5052 6.3493 16.4607 6.4 16.405C6.629 16.15 12 10.117 12 6.005C11.9982 4.41467 11.3663 2.88986 10.2427 1.76439C9.11908 0.638925 7.59533 0.00449587 6.005 0V0ZM6.005 9.026C5.40755 9.0258 4.82357 8.84846 4.3269 8.51638C3.83023 8.18431 3.44317 7.71243 3.21468 7.16039C2.98618 6.60836 2.9265 6.00097 3.04317 5.41502C3.15985 4.82907 3.44765 4.29087 3.87019 3.86848C4.29272 3.44608 4.83101 3.15846 5.417 3.04197C6.00299 2.92549 6.61037 2.98537 7.16232 3.21406C7.71428 3.44274 8.18604 3.82995 8.51794 4.32673C8.84985 4.82351 9.027 5.40755 9.027 6.005C9.02594 6.80607 8.70718 7.57401 8.14065 8.14035C7.57411 8.7067 6.80607 9.02521 6.005 9.026Z" fill="#AEACBC"/>
</svg>
