<svg width="79" height="70" viewBox="0 0 79 70" fill="none" xmlns="http://www.w3.org/2000/svg">
<path opacity="0.2" fill-rule="evenodd" clip-rule="evenodd" d="M0 69.696H6.34601V19.714L0 18.314V69.694V69.696Z" fill="#1E1744"/>
<path opacity="0.5" fill-rule="evenodd" clip-rule="evenodd" d="M8.52698 69.696H16.338V14.886L8.52698 12.914V69.697V69.696Z" fill="#1E1744"/>
<path fill-rule="evenodd" clip-rule="evenodd" d="M19.051 69.696H28.896V9.15302L19.051 6.23798V69.692V69.696Z" fill="#1E1744"/>
<path fill-rule="evenodd" clip-rule="evenodd" d="M78.714 16.06C76.7647 15.3807 74.7647 14.6856 72.714 13.975L58.588 9.07501C53.3147 7.24701 47.699 5.29834 41.741 3.229C38.732 2.186 35.635 1.10899 32.421 -0.00201416V69.698H78.721V16.06H78.714ZM41.737 58.915V14.031C47.7043 15.7643 53.3217 17.3976 58.589 18.931L72.71 23.031V60.659L58.589 59.859C53.314 59.568 47.705 59.253 41.738 58.915H41.737Z" fill="#EE1414"/>
</svg>
