<svg width="16" height="16" viewBox="0 0 16 16" fill="none" xmlns="http://www.w3.org/2000/svg">
<path opacity="0.3" d="M15.8291 12.1339C15.0851 11.1531 14.147 10.336 13.0732 9.73365C12.8299 9.58851 12.5533 9.50866 12.2701 9.50185C12.0897 9.49737 11.9114 9.54183 11.7542 9.63051C11.5971 9.71919 11.4668 9.84877 11.3774 10.0055C11.1376 10.3036 10.8807 10.5875 10.6081 10.8558C10.4758 10.9719 10.321 11.0595 10.1534 11.113C9.98574 11.1666 9.80885 11.185 9.63377 11.1671C9.45869 11.1492 9.28918 11.0954 9.13585 11.009C8.98252 10.9226 8.84867 10.8056 8.74265 10.6651L5.3322 7.25753C5.19214 7.15091 5.07552 7.01664 4.98958 6.86305C4.90363 6.70946 4.8502 6.53984 4.83261 6.36473C4.81501 6.18962 4.83363 6.01276 4.8873 5.84515C4.94098 5.67754 5.02856 5.52276 5.1446 5.39042C5.41345 5.11757 5.69778 4.8604 5.99616 4.62019C6.2209 4.49073 6.38561 4.27799 6.45461 4.02802C6.49658 3.83992 6.50105 3.64539 6.46778 3.45555C6.4345 3.26572 6.36414 3.0843 6.26069 2.92167C5.65859 1.84936 4.84207 0.912511 3.86199 0.16948C3.58538 0.0233819 3.26922 -0.0302769 2.95988 0.0163701C2.65054 0.0630171 2.36428 0.207516 2.14307 0.428683L1.38952 1.181C0.833674 1.67176 0.420981 2.30373 0.195179 3.00992C-0.0306234 3.71611 -0.0611232 4.47022 0.106912 5.19233C0.554371 6.68569 1.40473 8.02692 2.56463 9.06879L6.92782 13.431C8.63304 15.1358 10.2582 15.9998 11.7589 15.9998C12.3362 15.9859 12.9046 15.8553 13.4299 15.6157C13.9552 15.3761 14.4264 15.0326 14.8153 14.6058L15.5678 13.8535C15.7906 13.6332 15.9364 13.3468 15.9835 13.037C16.0306 12.7272 15.9764 12.4105 15.8291 12.1339Z" fill="#1E1744"/>
</svg>
