<svg width="16" height="16" viewBox="0 0 16 16" fill="none" xmlns="http://www.w3.org/2000/svg">
<path d="M15.0194 11.5158C14.3135 10.585 13.4233 9.80954 12.4044 9.23785C12.1736 9.10009 11.9112 9.02431 11.6424 9.01785C11.4713 9.01359 11.3021 9.05579 11.153 9.13995C11.0038 9.22412 10.8803 9.3471 10.7954 9.49585C10.5679 9.77873 10.3242 10.0482 10.0654 10.3028C9.93995 10.413 9.79309 10.4961 9.63402 10.547C9.47495 10.5978 9.30711 10.6153 9.14098 10.5983C8.97485 10.5813 8.81402 10.5302 8.66853 10.4482C8.52304 10.3663 8.39604 10.2551 8.29544 10.1218L5.05944 6.88785C4.92655 6.78666 4.8159 6.65923 4.73435 6.51346C4.6528 6.36769 4.6021 6.20671 4.58541 6.04052C4.56871 5.87433 4.58638 5.70649 4.63731 5.54741C4.68823 5.38834 4.77133 5.24144 4.88144 5.11585C5.13654 4.8569 5.40632 4.61283 5.68944 4.38485C5.90269 4.26199 6.05897 4.06008 6.12444 3.82285C6.16426 3.64432 6.16851 3.4597 6.13694 3.27954C6.10536 3.09937 6.03859 2.92719 5.94044 2.77285C5.36914 1.75516 4.59438 0.86603 3.66444 0.160847C3.40198 0.0221909 3.10199 -0.0287347 2.80847 0.0155363C2.51495 0.0598072 2.24334 0.196946 2.03344 0.406847L1.31844 1.12085C0.791029 1.58661 0.399447 2.18638 0.185195 2.8566C-0.0290569 3.52682 -0.0579966 4.24252 0.101443 4.92785C0.526014 6.34514 1.33287 7.61805 2.43344 8.60685L6.57344 12.7468C8.19144 14.3648 9.73344 15.1848 11.1574 15.1848C11.7051 15.1717 12.2445 15.0476 12.7429 14.8202C13.2413 14.5929 13.6885 14.2668 14.0574 13.8618L14.7714 13.1478C14.9829 12.9387 15.1212 12.667 15.1659 12.3729C15.2106 12.0789 15.1592 11.7783 15.0194 11.5158Z" fill="#1E1744"/>
</svg>
